<svg width="42" height="57" viewBox="0 0 42 57" fill="none" xmlns="http://www.w3.org/2000/svg">
<path d="M12.4837 49.279C13.9629 49.0317 11.8674 47.3213 10.6348 46.497C7.24509 46.1879 2.62275 40.0057 3.23906 39.6966C3.85537 39.3875 2.62275 36.9146 2.00644 35.369C1.39012 33.8234 2.31459 30.1141 2.9309 29.4959C3.54721 28.8776 0.465653 23.3136 1.08197 21.7681C1.57502 20.5316 2.9309 22.4893 3.54721 23.6227C3.75265 24.5501 4.34842 26.0956 5.088 24.8592C6.01246 23.3136 2.00643 13.7311 2.00643 13.1129C2.00643 12.4947 3.85537 13.422 4.77984 14.9676C4.828 15.0513 4.87791 15.1378 4.92942 15.2268C6.64555 18.0138 6.93693 11.8509 6.93693 10.9491C6.93693 10.2073 7.34781 9.81572 7.55324 9.71268C8.04629 8.47624 8.78587 7.75497 9.09403 7.5489C9.458 7.24465 10.0799 6.58822 10.6297 5.69423C11.0109 5.07442 11.3574 4.34043 11.5593 3.53044C12.0523 1.55212 12.7919 1.67576 13.1001 1.98487C17.1061 5.07599 16.7979 0.439306 17.7224 1.05753C18.4362 1.5349 19.9731 1.28273 20.7257 1.0793C20.7515 1.0714 20.7776 1.06414 20.804 1.05753C23.5774 1.36664 25.1181 4.14865 25.4263 3.83954C25.6728 3.59225 25.1181 2.50005 24.81 1.98487C26.3508 1.98487 27.8916 4.45776 28.816 6.31244C29.1736 7.02986 29.5456 7.39076 29.8694 7.54887C30.2151 7.71777 30.5058 7.65531 30.665 7.54887C32.8837 5.57056 33.8492 10.8461 34.0547 13.7311C34.2019 14.3217 34.6127 15.0816 35.2873 14.7373C35.5542 14.601 35.8623 14.2919 36.2118 13.7311C37.4444 11.7528 37.3417 18.4708 37.1362 22.0772C37.3417 23.0045 37.9374 24.6119 38.677 23.6227C39.3908 22.6681 39.5535 24.1089 39.5905 26.0956C39.6015 26.6821 39.6015 27.3162 39.6015 27.9503C39.6015 30.7323 40.2178 30.4232 40.8341 32.587C41.1621 33.7384 40.9665 35.9404 40.5723 37.8419C40.2258 39.5135 39.7258 40.9529 39.2933 41.2421C38.5538 41.7367 38.9852 42.6846 39.2933 43.0968C39.6015 44.2302 40.0329 46.497 39.2933 46.497C39.002 46.5624 38.6943 46.632 38.3726 46.7054C38.0806 46.8384 37.8616 47.0059 37.7525 47.1152C31.5894 53.2975 29.7405 52.061 29.1242 52.6792C28.6311 53.1738 27.6861 53.0914 27.2752 52.9884C25.8372 52.5762 22.9611 51.8756 22.9611 52.3701C22.9611 52.9884 20.804 52.9884 20.804 53.9157C20.804 54.6576 20.1876 54.843 19.8795 54.843C19.6741 54.843 19.0783 54.9049 18.3387 55.1521C17.4142 55.4613 14.949 56.6977 15.2571 55.4613C15.5037 54.4721 14.949 54.0187 14.6408 53.9157C13.4082 53.2975 10.7581 51.9374 10.0185 51.4428C9.09403 50.8246 10.6348 49.5881 12.4837 49.279Z" fill="#99A839"/>
<path d="M10.6348 46.497C11.8674 47.3213 13.9629 49.0317 12.4837 49.279M10.6348 46.497C7.24509 46.1879 2.62275 40.0057 3.23906 39.6966M10.6348 46.497C10.4104 45.4467 9.84006 44.4836 9.09403 43.6285M12.4837 49.279C10.6348 49.5881 9.09403 50.8246 10.0185 51.4428C10.7581 51.9374 13.4082 53.2975 14.6408 53.9157C14.949 54.0187 15.5037 54.4721 15.2571 55.4613C14.949 56.6977 17.4142 55.4613 18.3387 55.1521C19.0783 54.9049 19.6741 54.843 19.8795 54.843C20.1876 54.843 20.804 54.6576 20.804 53.9157C20.804 52.9884 22.9611 52.9884 22.9611 52.3701M12.4837 49.279C13.6137 50.1033 16.12 51.6283 17.1061 51.1337C17.7385 50.8165 19.3342 51.1605 20.804 51.6111M22.9611 52.3701C22.9611 51.8756 25.8372 52.5762 27.2752 52.9884C27.6861 53.0914 28.6311 53.1738 29.1242 52.6792C29.7405 52.061 31.5894 53.2975 37.7525 47.1152C37.958 46.9092 38.5538 46.497 39.2933 46.497M22.9611 52.3701C22.4084 52.1484 21.6259 51.8631 20.804 51.6111M39.2933 46.497C40.0329 46.497 39.6015 44.2302 39.2933 43.0968C38.9852 42.6846 38.5538 41.7367 39.2933 41.2421C39.7258 40.9529 40.2258 39.5135 40.5723 37.8419M39.2933 46.497C36.891 47.0365 33.3788 47.8612 30.0486 48.7125M34.0547 13.7311C33.8492 10.8461 32.8837 5.57056 30.665 7.54887C30.5058 7.65531 30.2151 7.71777 29.8694 7.54887M34.0547 13.7311C33.5857 13.7311 33.1516 13.9696 32.7598 14.3494M34.0547 13.7311C34.2019 14.3217 34.6127 15.0816 35.2873 14.7373M25.4263 3.83954C25.6728 3.59225 25.1181 2.50005 24.81 1.98487C26.3508 1.98487 27.8916 4.45776 28.816 6.31244C29.1736 7.02986 29.5456 7.39076 29.8694 7.54887M25.4263 3.83954C25.1181 4.14865 23.5774 1.36664 20.804 1.05753M25.4263 3.83954C25.4263 4.05307 25.2827 4.37607 25.042 4.76689M20.804 1.05753C20.0849 1.26361 18.462 1.55211 17.7224 1.05753C16.7979 0.439306 17.1061 5.07599 13.1001 1.98487C12.7919 1.67576 12.0523 1.55212 11.5593 3.53044C11.3574 4.34043 11.0109 5.07442 10.6297 5.69423M20.804 1.05753C18.8318 1.5521 18.4031 5.69385 18.4353 7.7029M4.77984 14.9676C6.62878 18.3678 6.93693 11.8765 6.93693 10.9491C6.93693 10.2073 7.34781 9.81572 7.55324 9.71268C8.04629 8.47624 8.78587 7.75497 9.09403 7.5489C9.458 7.24465 10.0799 6.58822 10.6297 5.69423M4.77984 14.9676C3.85537 13.422 2.00643 12.4947 2.00643 13.1129C2.00643 13.7311 6.01246 23.3136 5.088 24.8592C4.34842 26.0956 3.75265 24.5501 3.54721 23.6227C2.9309 22.4893 1.57502 20.5316 1.08197 21.7681C0.465653 23.3136 3.54721 28.8776 2.9309 29.4959M4.77984 14.9676C5.34149 15.9442 6.14129 17.2969 6.93693 18.5746M2.9309 29.4959C2.31459 30.1141 1.39012 33.8234 2.00644 35.369C2.62275 36.9146 3.85537 39.3875 3.23906 39.6966M2.9309 29.4959C3.2769 30.3635 3.73469 31.4436 4.25791 32.587M3.23906 39.6966C4.74174 40.2708 7.38096 41.665 9.09403 43.6285M20.804 51.6111C21.6425 50.9864 25.6897 49.8268 30.0486 48.7125M9.71034 40.6239C9.29946 41.0814 8.60098 42.3229 9.09403 43.6285M9.71034 40.6239C8.21265 40.4361 5.90934 36.1958 4.25791 32.587M9.71034 40.6239C11.5249 40.8514 14.1742 40.9115 16.1836 39.0783M30.0486 48.7125C29.2269 47.2528 27.152 44.3332 25.4263 44.3332C24.6875 44.3332 23.5459 43.3513 22.3447 42.0179M30.0486 48.7125C30.665 47.5619 32.329 45.0751 34.0547 44.3332C34.3746 44.1957 34.5442 43.9498 34.5982 43.6285M4.25791 32.587C4.81228 31.3582 5.90717 29.298 6.93693 28.2628M16.1836 39.0783C16.9042 38.421 17.5425 37.5202 18.0306 36.2963C18.6332 37.2208 19.4951 38.4643 20.4365 39.6966M16.1836 39.0783C15.2797 39.0783 13.9081 37.4739 12.5094 35.369M12.5094 35.369C10.859 32.8853 9.17108 29.7047 8.16956 27.6412C7.80159 27.5674 7.37516 27.8223 6.93693 28.2628M12.5094 35.369C13.6505 34.5856 15.4491 33.3892 17.1061 32.3676M26.9671 24.8592C27.1725 23.5197 27.7067 20.8407 28.1997 20.8407C28.5872 20.8407 28.7463 19.8222 28.7967 18.986M26.9671 24.8592C25.7233 26.2732 23.2746 28.869 21.7284 29.9472M26.9671 24.8592C27.2117 26.037 27.8245 27.832 28.8788 29.4959M34.0547 33.5143C34.7441 32.1771 35.875 30.1624 36.9769 28.5685M34.0547 33.5143C33.9232 33.7667 32.9727 35.4742 32.5139 36.2963M34.0547 33.5143C31.7308 32.9963 30.038 31.3253 28.8788 29.4959M39.5905 26.0956C39.6015 26.6821 39.6015 27.3162 39.6015 27.9503C39.6015 30.7323 40.2178 30.4232 40.8341 32.587C41.1621 33.7384 40.9665 35.9404 40.5723 37.8419M39.5905 26.0956C39.5535 24.1089 39.3908 22.6681 38.677 23.6227C37.9374 24.6119 37.3417 23.0045 37.1362 22.0772C37.3417 18.4708 37.4444 11.7528 36.2118 13.7311C35.8623 14.2919 35.5542 14.601 35.2873 14.7373M39.5905 26.0956C38.9936 25.9767 37.9977 27.092 36.9769 28.5685M36.9769 28.5685C38.0161 26.9517 35.9594 24.6302 34.5982 22.6278M20.4365 39.6966C21.8943 37.3267 24.81 32.2779 24.81 31.0414C24.81 29.805 25.8372 30.1141 26.3508 30.4232L28.816 31.0414C30.0486 32.587 32.5139 35.8018 32.5139 36.2963M20.4365 39.6966C21.0553 40.5065 21.7084 41.3115 22.3447 42.0179M32.5139 36.2963C32.5139 36.7909 31.8976 37.5328 31.5894 37.8419M31.5894 37.8419C30.4595 36.3994 28.0764 33.5143 27.5834 33.5143C26.9671 33.5143 23.2692 40.9391 22.3447 42.0179M31.5894 37.8419C32.8445 39.3527 34.8358 42.2173 34.5982 43.6285M34.5982 43.6285C35.7833 41.5966 38.6372 37.5946 40.5723 37.8419M17.1061 32.3676C18.7182 31.3737 20.1961 30.5451 20.804 30.4232C21.0415 30.3755 21.3593 30.2046 21.7284 29.9472M17.1061 32.3676C15.7449 30.3272 13.1743 26.1813 12.6175 24.241M6.93693 28.2628C6.62877 26.4115 8.16956 23.6227 9.09403 22.6954C9.25781 22.5311 9.47077 22.3959 9.71034 22.295M21.7284 29.9472C20.804 27.839 19.0167 23.4373 19.2632 22.6954C19.4938 22.0014 18.1735 21.6537 17.1061 21.6522M12.6175 24.241C12.5476 23.9972 12.5094 23.7883 12.5094 23.6227C12.5094 22.0966 10.8229 21.8263 9.71034 22.295M12.6175 24.241C12.6699 23.9412 13.2919 23.4235 14.0245 22.9345M28.7967 18.986C28.8104 18.7584 28.816 18.5442 28.816 18.3678C29.6966 18.6396 31.265 19.2788 32.5139 20.179M28.7967 18.986C28.1393 18.4482 27.218 17.6744 26.3508 16.9089M17.1061 21.6522C16.7471 21.6516 16.4168 21.6903 16.1836 21.7681C15.7063 21.9273 14.803 22.4147 14.0245 22.9345M17.1061 21.6522C18.0391 21.408 19.4255 19.7485 20.4365 18.2046M9.71034 22.295C9.40985 22.3799 8.17847 20.5685 6.93693 18.5746M6.93693 18.5746C7.65596 17.9905 9.09403 16.7604 9.09403 16.5132C9.09403 16.204 10.943 15.8949 10.943 16.8223C10.943 17.0389 11.0909 17.5009 11.3224 18.0787M14.0245 22.9345C13.7408 23.1177 12.0819 19.9746 11.3224 18.0787M11.3224 18.0787C11.7095 17.6599 12.5454 16.6368 12.7919 15.8949C12.9173 15.5176 13.9099 14.8845 15.0848 14.3494M20.4365 18.2046C21.1855 17.0608 21.7284 15.9804 21.7284 15.5858C21.7284 14.6585 23.8855 13.7311 23.8855 14.3494C23.8855 14.6454 25.0582 15.768 26.3508 16.9089M20.4365 18.2046C20.4365 17.6408 20.3251 16.5132 19.8795 16.5132C19.3225 16.5132 19.8795 14.9676 19.2632 13.7311C19.0078 13.2187 17.9055 13.3434 16.6802 13.7311M10.6297 5.69423C10.831 6.54871 11.1744 7.82002 11.5593 8.89815M15.0848 14.3494C14.8178 13.6861 14.3314 12.6346 13.8255 11.8765M15.0848 14.3494C15.6008 14.1144 16.1519 13.8983 16.6802 13.7311M13.8255 11.8765C13.4669 11.3391 13.0987 10.9491 12.7919 10.9491C12.4131 10.9491 11.9634 10.0301 11.5593 8.89815M13.8255 11.8765C14.9517 10.3254 17.1174 7.81721 18.4353 7.7029M20.804 9.71268C20.6815 9.91876 20.2018 9.89815 19.2632 8.16712C19.0682 7.80753 18.7809 7.67293 18.4353 7.7029M20.804 9.71268C19.4294 11.0522 16.6802 13.7311 16.6802 13.7311M20.804 9.71268C22.0121 8.50076 24.1677 6.18648 25.042 4.76689M11.5593 8.89815C11.8228 8.65448 12.3767 7.98167 12.4837 7.23979C12.6175 6.31244 14.947 5.07601 15.5653 5.69423C16.06 6.18879 16.7986 7.54889 17.1061 8.16712M26.3508 16.9089C27.1725 15.4375 28.7544 12.0001 28.5079 10.0218C28.1997 7.5489 24.7987 5.69424 25.042 4.76689M30.665 18.5746C30.9642 17.3989 31.7101 15.367 32.7598 14.3494M29.8694 7.54887C30.9148 9.72816 32.9566 14.1393 32.7598 14.3494M35.2873 14.7373C35.5469 17.0358 35.7726 21.8319 34.5982 22.6278M34.5982 22.6278C34.398 22.3332 34.2128 22.0456 34.0547 21.7681C33.7188 21.1785 33.159 20.6439 32.5139 20.179M28.8788 29.4959C30.3986 27.6122 33.2535 23.1116 32.5139 20.179" stroke="white"/>
</svg>
