<svg width="158" height="621" viewBox="0 0 158 621" fill="none" xmlns="http://www.w3.org/2000/svg">
<path d="M79.1975 67.1114C69.7475 66.6114 49.4326 68.7114 43.7725 81.1114L37.1591 171.111C39.1285 182.311 66.0052 184.111 79.1975 183.611C92.3897 184.111 119.267 182.311 121.236 171.111L114.622 81.1114C108.962 68.7114 88.6474 66.6114 79.1975 67.1114Z" fill="#FFB800"/>
<path d="M79.1975 326.111C54.6975 324.278 5.09748 332.811 2.69747 381.611V498.611C5.09748 549.811 54.6975 561.278 79.1974 560.611C103.697 561.278 153.297 549.811 155.697 498.611V381.611C153.297 332.811 103.697 324.278 79.1975 326.111Z" fill="#FFB800"/>
<path d="M79.1975 3.11139C71.3641 2.94472 55.4975 2.51139 54.6975 2.11139C53.6975 1.61139 42.6975 2.11139 41.6975 18.6114C41.8641 19.2781 42.7975 20.4114 45.1975 19.6114C46.007 18.8114 68.2014 18.6114 79.1975 18.6114C90.1935 18.6114 112.388 18.8114 113.197 19.6114C115.597 20.4114 116.531 19.2781 116.697 18.6114C115.697 2.11139 104.697 1.61139 103.697 2.11139C102.897 2.51139 87.0308 2.94472 79.1975 3.11139Z" fill="#FFB800"/>
<path d="M45.1975 19.6114C42.7975 20.4114 41.8641 19.2781 41.6975 18.6114C42.6975 2.11139 53.6975 1.61139 54.6975 2.11139C55.4975 2.51139 71.3641 2.94472 79.1975 3.11139C87.0308 2.94472 102.897 2.51139 103.697 2.11139C104.697 1.61139 115.697 2.11139 116.697 18.6114C116.531 19.2781 115.597 20.4114 113.197 19.6114M45.1975 19.6114C48.1975 18.6114 49.1975 24.1114 43.1975 35.6114C40.8429 40.0262 42.3143 43.8094 44.1856 46.1642C45.2711 47.5301 46.1194 49.1734 45.9916 50.9134L43.7725 81.1114M45.1975 19.6114C46.007 18.8114 68.2014 18.6114 79.1975 18.6114C90.1935 18.6114 112.388 18.8114 113.197 19.6114M43.7725 81.1114C49.4326 68.7114 69.7475 66.6114 79.1975 67.1114C88.6474 66.6114 108.962 68.7114 114.622 81.1114M43.7725 81.1114L37.1591 171.111M37.1591 171.111L34.6975 204.611C34.3641 216.945 30.0975 244.711 15.6975 257.111C1.29747 269.511 1.0308 303.945 2.69747 319.611V381.611M37.1591 171.111C39.1285 182.311 66.0052 184.111 79.1975 183.611C92.3897 184.111 119.267 182.311 121.236 171.111M2.69747 381.611C5.09748 332.811 54.6975 324.278 79.1975 326.111C103.697 324.278 153.297 332.811 155.697 381.611M2.69747 381.611V498.611M2.69747 498.611V558.111C2.5308 571.611 4.89748 600.711 15.6975 609.111C26.4975 617.511 61.1974 618.945 79.1974 618.611C97.1974 618.945 131.898 617.511 142.697 609.111C153.497 600.711 155.864 571.611 155.697 558.111V498.611M2.69747 498.611C5.09748 549.811 54.6975 561.278 79.1974 560.611C103.697 561.278 153.297 549.811 155.697 498.611M113.197 19.6114C110.197 18.6114 109.197 24.1114 115.197 35.6114C117.552 40.0262 116.081 43.8094 114.209 46.1642C113.124 47.5301 112.276 49.1734 112.403 50.9134L114.622 81.1114M114.622 81.1114L121.236 171.111M121.236 171.111L123.697 204.611C124.031 216.945 128.297 244.711 142.697 257.111C157.097 269.511 157.364 303.945 155.697 319.611V381.611M155.697 381.611V498.611" stroke="white" stroke-width="3"/>
<rect x="54.6975" y="100.5" width="49" height="49" stroke="white"/>
<circle cx="63.5725" cy="109.375" r="4.6875" fill="#FAFAFA"/>
<rect x="72.9475" y="107.812" width="7.8125" height="3.125" fill="#FAFAFA"/>
<rect x="82.3225" y="107.812" width="7.8125" height="3.125" fill="#FAFAFA"/>
<rect x="91.6975" y="107.812" width="7.8125" height="3.125" fill="#FAFAFA"/>
<path d="M91.6975 132.749V121.641H95.5885C96.9364 121.641 97.9587 121.9 98.6555 122.419C99.3523 122.933 99.7007 123.688 99.7007 124.685C99.7007 125.229 99.5609 125.71 99.2811 126.127C99.0014 126.539 98.6123 126.841 98.1138 127.035C98.6835 127.177 99.1311 127.464 99.4566 127.897C99.7872 128.329 99.9525 128.858 99.9525 129.484C99.9525 130.552 99.6117 131.36 98.9302 131.91C98.2486 132.459 97.2771 132.739 96.0157 132.749H91.6975ZM93.9863 127.912V130.91H95.9471C96.4862 130.91 96.9058 130.783 97.2059 130.529C97.5111 130.269 97.6637 129.913 97.6637 129.461C97.6637 128.444 97.1373 127.927 96.0844 127.912H93.9863ZM93.9863 126.295H95.6801C96.8346 126.274 97.4119 125.814 97.4119 124.914C97.4119 124.41 97.2644 124.049 96.9694 123.83C96.6795 123.606 96.2192 123.495 95.5885 123.495H93.9863V126.295Z" fill="#FAFAFA"/>
<path d="M87.8809 127.935H83.4863V130.91H88.6438V132.749H81.1975V121.641H88.6285V123.495H83.4863V126.142H87.8809V127.935Z" fill="#FAFAFA"/>
<path d="M73.2832 130.91H78.1431V132.749H70.9944V121.641H73.2832V130.91Z" fill="#FAFAFA"/>
<path d="M67.9487 131.498C67.5367 131.991 66.9544 132.375 66.2016 132.65C65.4488 132.919 64.6147 133.054 63.6992 133.054C62.7379 133.054 61.8935 132.846 61.1662 132.429C60.4439 132.006 59.8845 131.396 59.4877 130.598C59.0961 129.799 58.8952 128.861 58.885 127.782V127.027C58.885 125.918 59.0707 124.959 59.442 124.151C59.8183 123.337 60.3575 122.716 61.0594 122.289C61.7664 121.857 62.5929 121.641 63.5389 121.641C64.8563 121.641 65.8863 121.956 66.6288 122.587C67.3714 123.212 67.8114 124.125 67.9487 125.326H65.7209C65.6192 124.69 65.3929 124.224 65.0419 123.929C64.6961 123.634 64.218 123.487 63.6076 123.487C62.8294 123.487 62.2369 123.779 61.83 124.364C61.4231 124.949 61.2171 125.819 61.212 126.974V127.683C61.212 128.848 61.4332 129.728 61.8757 130.323C62.3182 130.918 62.9667 131.216 63.8212 131.216C64.6808 131.216 65.2937 131.032 65.6599 130.666V128.751H63.5771V127.065H67.9487V131.498Z" fill="#FAFAFA"/>
<circle cx="61.2288" cy="142.969" r="2.34375" fill="#FAFAFA"/>
<circle cx="67.4788" cy="142.969" r="2.34375" fill="#FAFAFA"/>
<circle cx="73.7288" cy="142.969" r="2.34375" fill="#FAFAFA"/>
<rect x="83.885" y="140.625" width="15.625" height="4.6875" fill="#FAFAFA"/>
<rect x="58.885" y="135.938" width="40.625" height="1.5625" fill="#FAFAFA"/>
<rect x="58.885" y="117.188" width="40.625" height="1.5625" fill="#FAFAFA"/>
<path d="M52.1367 382.524V378.06C52.1367 377.796 52.2447 377.568 52.4607 377.376C52.7007 377.184 52.9887 377.088 53.3247 377.088H67.1847C67.5207 377.088 67.7967 377.184 68.0127 377.376C68.2527 377.568 68.3727 377.796 68.3727 378.06V379.032V383.136C68.3727 383.52 68.2527 383.712 68.0127 383.712C67.9647 383.712 67.8687 383.676 67.7247 383.604C67.6047 383.532 67.4487 383.448 67.2567 383.352C67.0647 383.232 66.8847 383.148 66.7167 383.1C65.9727 382.836 64.9767 382.644 63.7287 382.524H63.4407C63.2727 382.524 63.1887 382.896 63.1887 383.64V396.42C63.2847 398.22 63.5127 399.576 63.8727 400.488C63.9447 400.656 64.0287 400.836 64.1247 401.028C64.2447 401.196 64.3407 401.34 64.4127 401.46C64.4847 401.58 64.5207 401.664 64.5207 401.712C64.5207 401.928 64.3047 402.036 63.8727 402.036H63.1887H56.6727C56.2167 402.036 55.9887 401.928 55.9887 401.712C55.9887 401.664 56.0247 401.58 56.0967 401.46C56.1687 401.34 56.2527 401.196 56.3487 401.028C56.4687 400.836 56.5647 400.656 56.6367 400.488C56.9967 399.576 57.2247 398.22 57.3207 396.42V383.64C57.3207 382.896 57.2367 382.524 57.0687 382.524H56.7807C55.5327 382.644 54.5487 382.836 53.8287 383.1C53.6607 383.172 53.4687 383.256 53.2527 383.352C53.0607 383.448 52.8927 383.532 52.7487 383.604C52.6287 383.676 52.5447 383.712 52.4967 383.712C52.2567 383.712 52.1367 383.52 52.1367 383.136V382.524Z" fill="white"/>
<path d="M84.67 380.076L87.838 396.924C88.198 398.46 88.606 399.66 89.062 400.524C89.134 400.644 89.218 400.776 89.314 400.92C89.41 401.064 89.482 401.184 89.53 401.28C89.602 401.352 89.662 401.436 89.71 401.532C89.758 401.604 89.782 401.664 89.782 401.712C89.782 401.928 89.614 402.036 89.278 402.036H88.81H81.97C81.466 402.036 81.214 401.928 81.214 401.712C81.214 401.664 81.25 401.58 81.322 401.46C81.394 401.316 81.478 401.16 81.574 400.992C81.67 400.8 81.742 400.62 81.79 400.452C82.054 399.492 82.078 398.172 81.862 396.492L81.502 394.008C81.454 393.696 81.31 393.492 81.07 393.396C80.83 393.276 80.566 393.3 80.278 393.468L77.218 395.16C76.546 395.568 76.15 396.084 76.03 396.708L75.886 397.68C75.79 398.88 75.826 399.804 75.994 400.452C76.042 400.62 76.114 400.8 76.21 400.992C76.306 401.16 76.39 401.316 76.462 401.46C76.534 401.58 76.57 401.664 76.57 401.712C76.57 401.928 76.33 402.036 75.85 402.036H75.166H68.47C68.158 402.036 68.002 401.928 68.002 401.712C68.002 401.664 68.038 401.592 68.11 401.496C68.182 401.376 68.278 401.22 68.398 401.028C68.542 400.836 68.65 400.668 68.722 400.524C69.082 399.852 69.442 398.832 69.802 397.464L73.114 380.22C73.306 379.452 73.294 378.84 73.078 378.384C73.03 378.288 72.958 378.168 72.862 378.024C72.79 377.856 72.73 377.724 72.682 377.628C72.634 377.532 72.61 377.46 72.61 377.412C72.61 377.196 72.802 377.088 73.186 377.088H73.726H84.67C85.054 377.088 85.246 377.196 85.246 377.412C85.246 377.484 85.09 377.784 84.778 378.312C84.562 378.672 84.526 379.26 84.67 380.076ZM78.262 389.22L79.342 388.68C80.014 388.296 80.29 387.756 80.17 387.06L79.162 382.452C79.018 381.828 78.862 381.828 78.694 382.452L77.434 388.68C77.386 388.992 77.434 389.208 77.578 389.328C77.746 389.424 77.974 389.388 78.262 389.22Z" fill="white"/>
<path d="M92.2469 377.088H104.955C106.059 377.088 106.983 377.448 107.727 378.168C108.495 378.888 108.879 379.74 108.879 380.724V389.832C108.879 390.816 108.495 391.656 107.727 392.352C106.959 393.048 106.035 393.396 104.955 393.396H99.2669C98.9309 393.396 98.6429 393.504 98.4029 393.72C98.1869 393.936 98.0789 394.2 98.0789 394.512V396.492C98.1749 398.292 98.4149 399.624 98.7989 400.488C98.8709 400.656 98.9549 400.836 99.0509 401.028C99.1709 401.196 99.2669 401.34 99.3389 401.46C99.4109 401.58 99.4469 401.664 99.4469 401.712C99.4469 401.928 99.2189 402.036 98.7629 402.036H98.0789H91.5629C91.1069 402.036 90.8789 401.928 90.8789 401.712C90.8789 401.664 90.9149 401.58 90.9869 401.46C91.0589 401.34 91.1429 401.196 91.2389 401.028C91.3589 400.836 91.4549 400.656 91.5269 400.488C91.9109 399.6 92.1509 398.208 92.2469 396.312V382.812C92.1509 380.94 91.9109 379.56 91.5269 378.672C91.4549 378.504 91.3589 378.324 91.2389 378.132C91.1429 377.94 91.0589 377.784 90.9869 377.664C90.9149 377.544 90.8789 377.46 90.8789 377.412C90.8789 377.196 91.1069 377.088 91.5629 377.088H92.2469ZM99.2669 387.96H101.823C102.159 387.96 102.435 387.864 102.651 387.672C102.891 387.456 103.011 387.192 103.011 386.88V383.64C103.011 383.328 102.891 383.064 102.651 382.848C102.435 382.632 102.159 382.524 101.823 382.524H99.2669C98.9309 382.524 98.6429 382.632 98.4029 382.848C98.1869 383.064 98.0789 383.328 98.0789 383.64V386.88C98.0789 387.192 98.1869 387.456 98.4029 387.672C98.6429 387.864 98.9309 387.96 99.2669 387.96Z" fill="white"/>
<path d="M39.1523 449.362V458.236C39.1523 458.716 39.3443 459.136 39.7283 459.496C40.1243 459.844 40.5803 460.018 41.0963 460.018H45.5243C46.0523 460.018 46.5083 459.844 46.8923 459.496C47.2763 459.148 47.4683 458.728 47.4683 458.236V449.362C47.4683 448.87 47.2763 448.444 46.8923 448.084C46.5203 447.724 46.0643 447.544 45.5243 447.544H41.0963C40.5803 447.544 40.1243 447.73 39.7283 448.102C39.3443 448.462 39.1523 448.882 39.1523 449.362ZM42.6623 450.262H43.9403C44.1083 450.262 44.2463 450.316 44.3543 450.424C44.4743 450.532 44.5343 450.664 44.5343 450.82V456.742C44.5343 456.898 44.4743 457.03 44.3543 457.138C44.2463 457.246 44.1083 457.3 43.9403 457.3H42.6623C42.4943 457.3 42.3503 457.246 42.2303 457.138C42.1223 457.03 42.0683 456.898 42.0683 456.742V450.82C42.0683 450.664 42.1223 450.532 42.2303 450.424C42.3503 450.316 42.4943 450.262 42.6623 450.262Z" fill="white"/>
<path d="M55.6126 447.544H58.8706C59.0866 447.544 59.1946 447.598 59.1946 447.706C59.1946 447.73 59.1766 447.772 59.1406 447.832C59.1046 447.892 59.0566 447.97 58.9966 448.066C58.9486 448.162 58.9066 448.252 58.8706 448.336C58.7026 448.696 58.5946 449.23 58.5466 449.938V457.624C58.5946 458.332 58.7026 458.872 58.8706 459.244C58.9066 459.328 58.9486 459.418 58.9966 459.514C59.0566 459.598 59.1046 459.67 59.1406 459.73C59.1766 459.79 59.1946 459.832 59.1946 459.856C59.1946 459.964 59.0866 460.018 58.8706 460.018H58.5466H56.0986C55.9306 460.018 55.7686 459.97 55.6126 459.874C55.4566 459.778 55.3486 459.658 55.2886 459.514L52.4086 453.25C52.3726 453.166 52.3366 453.112 52.3006 453.088C52.2646 453.052 52.2346 453.058 52.2106 453.106C52.1866 453.142 52.1746 453.208 52.1746 453.304V457.48C52.2226 458.224 52.3366 458.812 52.5166 459.244C52.5526 459.328 52.5946 459.418 52.6426 459.514C52.7026 459.598 52.7506 459.67 52.7866 459.73C52.8226 459.79 52.8406 459.832 52.8406 459.856C52.8406 459.964 52.7266 460.018 52.4986 460.018H52.1746H48.8986C48.6706 460.018 48.5566 459.964 48.5566 459.856C48.5566 459.832 48.5746 459.79 48.6106 459.73C48.6466 459.67 48.6886 459.598 48.7366 459.514C48.7966 459.418 48.8446 459.328 48.8806 459.244C49.1086 458.728 49.2346 457.882 49.2586 456.706V456.166C49.2466 456.13 49.2406 456.094 49.2406 456.058V455.968C49.2526 455.812 49.2586 455.632 49.2586 455.428V452.152L49.2406 451.594V451.504C49.2406 451.468 49.2466 451.438 49.2586 451.414V450.856C49.2346 449.692 49.1086 448.852 48.8806 448.336C48.8446 448.252 48.7966 448.162 48.7366 448.066C48.6886 447.97 48.6466 447.892 48.6106 447.832C48.5746 447.772 48.5566 447.73 48.5566 447.706C48.5566 447.598 48.6706 447.544 48.8986 447.544H49.2586H52.2286C52.3846 447.544 52.5466 447.598 52.7146 447.706C52.8826 447.802 52.9966 447.916 53.0566 448.048L55.3786 452.962C55.4146 453.058 55.4506 453.118 55.4866 453.142C55.5226 453.166 55.5526 453.16 55.5766 453.124C55.6006 453.088 55.6126 453.022 55.6126 452.926V450.046C55.6126 449.566 55.5826 449.2 55.5226 448.948C55.4626 448.696 55.4026 448.492 55.3426 448.336C55.3066 448.252 55.2586 448.162 55.1986 448.066C55.1506 447.97 55.1086 447.892 55.0726 447.832C55.0366 447.772 55.0186 447.73 55.0186 447.706C55.0186 447.598 55.1146 447.544 55.3066 447.544H55.6126Z" fill="white"/>
<path d="M74.3682 449.038L75.9522 457.462C76.1322 458.23 76.3362 458.83 76.5642 459.262C76.6002 459.322 76.6422 459.388 76.6902 459.46C76.7382 459.532 76.7742 459.592 76.7982 459.64C76.8342 459.676 76.8642 459.718 76.8882 459.766C76.9122 459.802 76.9242 459.832 76.9242 459.856C76.9242 459.964 76.8402 460.018 76.6722 460.018H76.4382H73.0182C72.7662 460.018 72.6402 459.964 72.6402 459.856C72.6402 459.832 72.6582 459.79 72.6942 459.73C72.7302 459.658 72.7722 459.58 72.8202 459.496C72.8682 459.4 72.9042 459.31 72.9282 459.226C73.0602 458.746 73.0722 458.086 72.9642 457.246L72.7842 456.004C72.7602 455.848 72.6882 455.746 72.5682 455.698C72.4482 455.638 72.3162 455.65 72.1722 455.734L70.6422 456.58C70.3062 456.784 70.1082 457.042 70.0482 457.354L69.9762 457.84C69.9282 458.44 69.9462 458.902 70.0302 459.226C70.0542 459.31 70.0902 459.4 70.1382 459.496C70.1862 459.58 70.2282 459.658 70.2642 459.73C70.3002 459.79 70.3182 459.832 70.3182 459.856C70.3182 459.964 70.1982 460.018 69.9582 460.018H69.6162H66.2682C66.1122 460.018 66.0342 459.964 66.0342 459.856C66.0342 459.832 66.0522 459.796 66.0882 459.748C66.1242 459.688 66.1722 459.61 66.2322 459.514C66.3042 459.418 66.3582 459.334 66.3942 459.262C66.5742 458.926 66.7542 458.416 66.9342 457.732L68.5902 449.11C68.6862 448.726 68.6802 448.42 68.5722 448.192C68.5482 448.144 68.5122 448.084 68.4642 448.012C68.4282 447.928 68.3982 447.862 68.3742 447.814C68.3502 447.766 68.3382 447.73 68.3382 447.706C68.3382 447.598 68.4342 447.544 68.6262 447.544H68.8962H74.3682C74.5602 447.544 74.6562 447.598 74.6562 447.706C74.6562 447.742 74.5782 447.892 74.4222 448.156C74.3142 448.336 74.2962 448.63 74.3682 449.038ZM71.1642 453.61L71.7042 453.34C72.0402 453.148 72.1782 452.878 72.1182 452.53L71.6142 450.226C71.5422 449.914 71.4642 449.914 71.3802 450.226L70.7502 453.34C70.7262 453.496 70.7502 453.604 70.8222 453.664C70.9062 453.712 71.0202 453.694 71.1642 453.61Z" fill="white"/>
<path d="M84.1076 447.544H84.4496H91.1636C91.3316 447.544 91.4696 447.598 91.5776 447.706C91.6976 447.802 91.7576 447.922 91.7576 448.066V448.57V450.586C91.7576 450.79 91.6976 450.892 91.5776 450.892C91.5536 450.892 91.5056 450.88 91.4336 450.856C91.3736 450.82 91.2896 450.778 91.1816 450.73C91.0856 450.67 90.9956 450.628 90.9116 450.604C90.4436 450.424 89.7176 450.31 88.7336 450.262H87.9596C87.7916 450.262 87.6476 450.316 87.5276 450.424C87.4196 450.532 87.3656 450.664 87.3656 450.82V452.188C87.3656 452.344 87.4256 452.476 87.5456 452.584C87.6656 452.692 87.8036 452.74 87.9596 452.728C88.8956 452.68 89.6036 452.572 90.0836 452.404C90.1676 452.368 90.2576 452.326 90.3536 452.278C90.4616 452.218 90.5456 452.176 90.6056 452.152C90.6776 452.116 90.7256 452.098 90.7496 452.098C90.8576 452.098 90.9116 452.284 90.9116 452.656V455.032C90.9116 455.404 90.8576 455.59 90.7496 455.59C90.7256 455.59 90.6776 455.572 90.6056 455.536C90.5456 455.5 90.4616 455.458 90.3536 455.41C90.2576 455.362 90.1676 455.32 90.0836 455.284C89.6036 455.116 88.8956 455.008 87.9596 454.96C87.8036 454.948 87.6656 454.996 87.5456 455.104C87.4256 455.212 87.3656 455.344 87.3656 455.5V457.354C87.4376 458.218 87.5576 458.848 87.7256 459.244C87.7616 459.328 87.8036 459.418 87.8516 459.514C87.9116 459.598 87.9596 459.67 87.9956 459.73C88.0316 459.79 88.0496 459.832 88.0496 459.856C88.0496 459.964 87.9356 460.018 87.7076 460.018H87.3656H84.1076C83.8796 460.018 83.7656 459.964 83.7656 459.856C83.7656 459.832 83.7836 459.79 83.8196 459.73C83.8556 459.67 83.8976 459.598 83.9456 459.514C84.0056 459.418 84.0536 459.328 84.0896 459.244C84.3056 458.752 84.4256 458.008 84.4496 457.012V450.55C84.4256 449.566 84.3056 448.828 84.0896 448.336C84.0536 448.252 84.0056 448.162 83.9456 448.066C83.8976 447.97 83.8556 447.892 83.8196 447.832C83.7836 447.772 83.7656 447.73 83.7656 447.706C83.7656 447.598 83.8796 447.544 84.1076 447.544Z" fill="white"/>
<path d="M96.4539 457.3H96.4899C97.6659 457.276 98.5179 457.162 99.0459 456.958C99.1299 456.934 99.2199 456.898 99.3159 456.85C99.4239 456.79 99.5079 456.742 99.5679 456.706C99.6279 456.67 99.6759 456.652 99.7119 456.652C99.8199 456.652 99.8739 456.76 99.8739 456.976V457.3V459.496C99.8739 459.64 99.8139 459.766 99.6939 459.874C99.5859 459.97 99.4479 460.018 99.2799 460.018H93.1779C92.9619 460.018 92.8539 459.964 92.8539 459.856C92.8539 459.832 92.8719 459.79 92.9079 459.73C92.9439 459.67 92.9859 459.598 93.0339 459.514C93.0939 459.418 93.1419 459.328 93.1779 459.244C93.3339 458.872 93.4479 458.272 93.5199 457.444V450.37C93.4719 449.446 93.3519 448.768 93.1599 448.336C93.1239 448.252 93.0759 448.162 93.0159 448.066C92.9679 447.97 92.9259 447.892 92.8899 447.832C92.8539 447.772 92.8359 447.73 92.8359 447.706C92.8359 447.598 92.9499 447.544 93.1779 447.544H93.5199H96.7779C97.0059 447.544 97.1199 447.598 97.1199 447.706C97.1199 447.73 97.1019 447.772 97.0659 447.832C97.0299 447.892 96.9819 447.97 96.9219 448.066C96.8739 448.162 96.8319 448.252 96.7959 448.336C96.6039 448.768 96.4839 449.446 96.4359 450.37V456.742L96.4539 457.3Z" fill="white"/>
<path d="M108.751 449.038L110.335 457.462C110.515 458.23 110.719 458.83 110.947 459.262C110.983 459.322 111.025 459.388 111.073 459.46C111.121 459.532 111.157 459.592 111.181 459.64C111.217 459.676 111.247 459.718 111.271 459.766C111.295 459.802 111.307 459.832 111.307 459.856C111.307 459.964 111.223 460.018 111.055 460.018H110.821H107.401C107.149 460.018 107.023 459.964 107.023 459.856C107.023 459.832 107.041 459.79 107.077 459.73C107.113 459.658 107.155 459.58 107.203 459.496C107.251 459.4 107.287 459.31 107.311 459.226C107.443 458.746 107.455 458.086 107.347 457.246L107.167 456.004C107.143 455.848 107.071 455.746 106.951 455.698C106.831 455.638 106.699 455.65 106.555 455.734L105.025 456.58C104.689 456.784 104.491 457.042 104.431 457.354L104.359 457.84C104.311 458.44 104.329 458.902 104.413 459.226C104.437 459.31 104.473 459.4 104.521 459.496C104.569 459.58 104.611 459.658 104.647 459.73C104.683 459.79 104.701 459.832 104.701 459.856C104.701 459.964 104.581 460.018 104.341 460.018H103.999H100.651C100.495 460.018 100.417 459.964 100.417 459.856C100.417 459.832 100.435 459.796 100.471 459.748C100.507 459.688 100.555 459.61 100.615 459.514C100.687 459.418 100.741 459.334 100.777 459.262C100.957 458.926 101.137 458.416 101.317 457.732L102.973 449.11C103.069 448.726 103.063 448.42 102.955 448.192C102.931 448.144 102.895 448.084 102.847 448.012C102.811 447.928 102.781 447.862 102.757 447.814C102.733 447.766 102.721 447.73 102.721 447.706C102.721 447.598 102.817 447.544 103.009 447.544H103.279H108.751C108.943 447.544 109.039 447.598 109.039 447.706C109.039 447.742 108.961 447.892 108.805 448.156C108.697 448.336 108.679 448.63 108.751 449.038ZM105.547 453.61L106.087 453.34C106.423 453.148 106.561 452.878 106.501 452.53L105.997 450.226C105.925 449.914 105.847 449.914 105.763 450.226L105.133 453.34C105.109 453.496 105.133 453.604 105.205 453.664C105.289 453.712 105.403 453.694 105.547 453.61Z" fill="white"/>
<path d="M116.229 453.592H117.453H118.641H120.261C120.417 453.592 120.555 453.622 120.675 453.682C120.795 453.73 120.855 453.784 120.855 453.844C120.855 453.88 120.831 453.934 120.783 454.006C120.747 454.078 120.693 454.168 120.621 454.276C120.561 454.372 120.513 454.456 120.477 454.528C120.321 454.864 120.219 455.392 120.171 456.112V458.236C120.171 458.728 119.979 459.148 119.595 459.496C119.211 459.844 118.755 460.018 118.227 460.018H113.799C113.283 460.018 112.827 459.844 112.431 459.496C112.047 459.136 111.855 458.716 111.855 458.236V449.362C111.855 448.882 112.047 448.462 112.431 448.102C112.827 447.73 113.283 447.544 113.799 447.544H118.227C118.767 447.544 119.223 447.724 119.595 448.084C119.979 448.444 120.171 448.87 120.171 449.362V451.558C120.171 451.714 120.111 451.846 119.991 451.954C119.883 452.062 119.745 452.116 119.577 452.116H117.849C117.453 452.116 117.255 452.11 117.255 452.098H116.895C116.667 452.098 116.553 452.014 116.553 451.846C116.553 451.798 116.571 451.744 116.607 451.684C116.655 451.624 116.715 451.552 116.787 451.468C116.871 451.372 116.931 451.288 116.967 451.216C117.039 451.048 117.093 450.91 117.129 450.802C117.177 450.658 117.147 450.532 117.039 450.424C116.943 450.316 116.811 450.262 116.643 450.262H115.365C115.197 450.262 115.053 450.316 114.933 450.424C114.825 450.532 114.771 450.664 114.771 450.82V456.742C114.771 456.898 114.825 457.03 114.933 457.138C115.053 457.246 115.197 457.3 115.365 457.3H116.643C116.811 457.3 116.955 457.252 117.075 457.156C117.195 457.06 117.255 456.946 117.255 456.814C117.255 456.682 117.201 456.568 117.093 456.472C116.997 456.364 116.883 456.31 116.751 456.31C116.619 456.31 116.493 456.262 116.373 456.166C116.253 456.058 116.175 455.926 116.139 455.77L115.761 454.132C115.725 453.988 115.755 453.862 115.851 453.754C115.947 453.646 116.073 453.592 116.229 453.592Z" fill="white"/>
<path d="M30.6094 478.262V476.03C30.6094 475.898 30.6634 475.784 30.7714 475.688C30.8914 475.592 31.0354 475.544 31.2034 475.544H38.1334C38.3014 475.544 38.4394 475.592 38.5474 475.688C38.6674 475.784 38.7274 475.898 38.7274 476.03V476.516V478.568C38.7274 478.76 38.6674 478.856 38.5474 478.856C38.5234 478.856 38.4754 478.838 38.4034 478.802C38.3434 478.766 38.2654 478.724 38.1694 478.676C38.0734 478.616 37.9834 478.574 37.8994 478.55C37.5274 478.418 37.0294 478.322 36.4054 478.262H36.2614C36.1774 478.262 36.1354 478.448 36.1354 478.82V485.21C36.1834 486.11 36.2974 486.788 36.4774 487.244C36.5134 487.328 36.5554 487.418 36.6034 487.514C36.6634 487.598 36.7114 487.67 36.7474 487.73C36.7834 487.79 36.8014 487.832 36.8014 487.856C36.8014 487.964 36.6934 488.018 36.4774 488.018H36.1354H32.8774C32.6494 488.018 32.5354 487.964 32.5354 487.856C32.5354 487.832 32.5534 487.79 32.5894 487.73C32.6254 487.67 32.6674 487.598 32.7154 487.514C32.7754 487.418 32.8234 487.328 32.8594 487.244C33.0394 486.788 33.1534 486.11 33.2014 485.21V478.82C33.2014 478.448 33.1594 478.262 33.0754 478.262H32.9314C32.3074 478.322 31.8154 478.418 31.4554 478.55C31.3714 478.586 31.2754 478.628 31.1674 478.676C31.0714 478.724 30.9874 478.766 30.9154 478.802C30.8554 478.838 30.8134 478.856 30.7894 478.856C30.6694 478.856 30.6094 478.76 30.6094 478.568V478.262Z" fill="white"/>
<path d="M39.8027 477.362V486.236C39.8027 486.716 39.9947 487.136 40.3787 487.496C40.7747 487.844 41.2307 488.018 41.7467 488.018H46.1747C46.7027 488.018 47.1587 487.844 47.5427 487.496C47.9267 487.148 48.1187 486.728 48.1187 486.236V477.362C48.1187 476.87 47.9267 476.444 47.5427 476.084C47.1707 475.724 46.7147 475.544 46.1747 475.544H41.7467C41.2307 475.544 40.7747 475.73 40.3787 476.102C39.9947 476.462 39.8027 476.882 39.8027 477.362ZM43.3127 478.262H44.5907C44.7587 478.262 44.8967 478.316 45.0047 478.424C45.1247 478.532 45.1847 478.664 45.1847 478.82V484.742C45.1847 484.898 45.1247 485.03 45.0047 485.138C44.8967 485.246 44.7587 485.3 44.5907 485.3H43.3127C43.1447 485.3 43.0007 485.246 42.8807 485.138C42.7727 485.03 42.7187 484.898 42.7187 484.742V478.82C42.7187 478.664 42.7727 478.532 42.8807 478.424C43.0007 478.316 43.1447 478.262 43.3127 478.262Z" fill="white"/>
<path d="M57.84 475.544H62.25C62.802 475.544 63.264 475.712 63.636 476.048C64.008 476.384 64.194 476.81 64.194 477.326V477.848C64.194 478.22 64.242 478.532 64.338 478.784C64.362 478.844 64.398 478.916 64.446 479C64.494 479.084 64.53 479.156 64.554 479.216C64.578 479.264 64.59 479.3 64.59 479.324C64.59 479.432 64.392 479.486 63.996 479.486H61.512C61.116 479.486 60.918 479.432 60.918 479.324C60.918 479.3 60.93 479.264 60.954 479.216C60.99 479.156 61.026 479.084 61.062 479C61.11 478.916 61.146 478.844 61.17 478.784C61.242 478.616 61.278 478.46 61.278 478.316C61.278 478.28 61.08 478.262 60.684 478.262H59.406C59.238 478.262 59.094 478.316 58.974 478.424C58.866 478.532 58.812 478.664 58.812 478.82V479.882C58.812 480.038 58.866 480.17 58.974 480.278C59.094 480.386 59.238 480.44 59.406 480.44H62.25C62.79 480.44 63.246 480.62 63.618 480.98C64.002 481.34 64.194 481.766 64.194 482.258V486.236C64.194 486.728 64.002 487.148 63.618 487.496C63.246 487.844 62.79 488.018 62.25 488.018H57.84C57.312 488.018 56.85 487.844 56.454 487.496C56.07 487.136 55.878 486.716 55.878 486.236V485.606C55.878 485.174 55.836 484.856 55.752 484.652C55.728 484.592 55.692 484.526 55.644 484.454C55.596 484.37 55.56 484.304 55.536 484.256C55.512 484.196 55.5 484.154 55.5 484.13C55.5 484.022 55.698 483.968 56.094 483.968H58.578C58.974 483.968 59.172 484.022 59.172 484.13C59.172 484.142 59.088 484.304 58.92 484.616C58.848 484.772 58.812 484.952 58.812 485.156C58.812 485.252 59.01 485.3 59.406 485.3H60.684C60.852 485.3 60.99 485.246 61.098 485.138C61.218 485.03 61.278 484.898 61.278 484.742V483.716C61.278 483.56 61.218 483.428 61.098 483.32C60.99 483.212 60.852 483.158 60.684 483.158H57.84C57.276 483.158 56.808 482.984 56.436 482.636C56.064 482.276 55.878 481.856 55.878 481.376V477.362C55.878 476.834 56.058 476.402 56.418 476.066C56.778 475.718 57.252 475.544 57.84 475.544Z" fill="white"/>
<path d="M69.8537 485.3H71.0237C71.5277 485.3 71.9237 485.276 72.2117 485.228C72.5957 485.156 72.8657 485.09 73.0217 485.03C73.1057 484.994 73.1957 484.952 73.2917 484.904C73.3997 484.856 73.4837 484.814 73.5437 484.778C73.6157 484.742 73.6637 484.724 73.6877 484.724C73.8077 484.724 73.8677 484.82 73.8677 485.012V485.3V487.532C73.8677 487.664 73.8077 487.778 73.6877 487.874C73.5797 487.97 73.4417 488.018 73.2737 488.018H66.0017C65.7857 488.018 65.6777 487.964 65.6777 487.856C65.6777 487.832 65.6957 487.79 65.7317 487.73C65.7677 487.67 65.8097 487.598 65.8577 487.514C65.9177 487.418 65.9657 487.328 66.0017 487.244C66.1697 486.848 66.2777 486.278 66.3257 485.534V478.028C66.2777 477.272 66.1697 476.708 66.0017 476.336C65.9657 476.252 65.9177 476.162 65.8577 476.066C65.8097 475.97 65.7677 475.892 65.7317 475.832C65.6957 475.772 65.6777 475.73 65.6777 475.706C65.6777 475.598 65.7857 475.544 66.0017 475.544H66.3257H73.0397C73.2077 475.544 73.3457 475.598 73.4537 475.706C73.5737 475.814 73.6337 475.946 73.6337 476.102V477.722V478.262V478.586C73.6337 478.79 73.5737 478.892 73.4537 478.892C73.4297 478.892 73.3817 478.88 73.3097 478.856C73.2497 478.82 73.1657 478.778 73.0577 478.73C72.9617 478.67 72.8717 478.628 72.7877 478.604C72.3197 478.424 71.5937 478.31 70.6097 478.262H69.8537C69.6857 478.262 69.5417 478.316 69.4217 478.424C69.3137 478.532 69.2597 478.664 69.2597 478.82V480.188C69.2717 480.344 69.3317 480.476 69.4397 480.584C69.5597 480.692 69.7037 480.74 69.8717 480.728C70.7957 480.68 71.4917 480.572 71.9597 480.404C72.0437 480.368 72.1337 480.326 72.2297 480.278C72.3377 480.218 72.4217 480.176 72.4817 480.152C72.5537 480.116 72.6017 480.098 72.6257 480.098C72.7457 480.098 72.8057 480.284 72.8057 480.656V483.032C72.8057 483.404 72.7457 483.59 72.6257 483.59C72.6017 483.59 72.5537 483.572 72.4817 483.536C72.4217 483.5 72.3377 483.458 72.2297 483.41C72.1337 483.362 72.0437 483.32 71.9597 483.284C71.4917 483.116 70.7957 483.008 69.8717 482.96C69.7037 482.948 69.5597 482.996 69.4397 483.104C69.3317 483.212 69.2717 483.344 69.2597 483.5V484.742C69.2597 484.898 69.3137 485.03 69.4217 485.138C69.5417 485.246 69.6857 485.3 69.8537 485.3Z" fill="white"/>
<path d="M79.1174 485.3H80.2874C80.7914 485.3 81.1874 485.276 81.4754 485.228C81.8594 485.156 82.1294 485.09 82.2854 485.03C82.3694 484.994 82.4594 484.952 82.5554 484.904C82.6634 484.856 82.7474 484.814 82.8074 484.778C82.8794 484.742 82.9274 484.724 82.9514 484.724C83.0714 484.724 83.1314 484.82 83.1314 485.012V485.3V487.532C83.1314 487.664 83.0714 487.778 82.9514 487.874C82.8434 487.97 82.7054 488.018 82.5374 488.018H75.2654C75.0494 488.018 74.9414 487.964 74.9414 487.856C74.9414 487.832 74.9594 487.79 74.9954 487.73C75.0314 487.67 75.0734 487.598 75.1214 487.514C75.1814 487.418 75.2294 487.328 75.2654 487.244C75.4334 486.848 75.5414 486.278 75.5894 485.534V478.028C75.5414 477.272 75.4334 476.708 75.2654 476.336C75.2294 476.252 75.1814 476.162 75.1214 476.066C75.0734 475.97 75.0314 475.892 74.9954 475.832C74.9594 475.772 74.9414 475.73 74.9414 475.706C74.9414 475.598 75.0494 475.544 75.2654 475.544H75.5894H82.3034C82.4714 475.544 82.6094 475.598 82.7174 475.706C82.8374 475.814 82.8974 475.946 82.8974 476.102V477.722V478.262V478.586C82.8974 478.79 82.8374 478.892 82.7174 478.892C82.6934 478.892 82.6454 478.88 82.5734 478.856C82.5134 478.82 82.4294 478.778 82.3214 478.73C82.2254 478.67 82.1354 478.628 82.0514 478.604C81.5834 478.424 80.8574 478.31 79.8734 478.262H79.1174C78.9494 478.262 78.8054 478.316 78.6854 478.424C78.5774 478.532 78.5234 478.664 78.5234 478.82V480.188C78.5354 480.344 78.5954 480.476 78.7034 480.584C78.8234 480.692 78.9674 480.74 79.1354 480.728C80.0594 480.68 80.7554 480.572 81.2234 480.404C81.3074 480.368 81.3974 480.326 81.4934 480.278C81.6014 480.218 81.6854 480.176 81.7454 480.152C81.8174 480.116 81.8654 480.098 81.8894 480.098C82.0094 480.098 82.0694 480.284 82.0694 480.656V483.032C82.0694 483.404 82.0094 483.59 81.8894 483.59C81.8654 483.59 81.8174 483.572 81.7454 483.536C81.6854 483.5 81.6014 483.458 81.4934 483.41C81.3974 483.362 81.3074 483.32 81.2234 483.284C80.7554 483.116 80.0594 483.008 79.1354 482.96C78.9674 482.948 78.8234 482.996 78.7034 483.104C78.5954 483.212 78.5354 483.344 78.5234 483.5V484.742C78.5234 484.898 78.5774 485.03 78.6854 485.138C78.8054 485.246 78.9494 485.3 79.1174 485.3Z" fill="white"/>
<path d="M91.164 475.544H97.536C98.076 475.544 98.532 475.724 98.904 476.084C99.288 476.444 99.48 476.87 99.48 477.362V486.236C99.48 486.728 99.288 487.148 98.904 487.496C98.532 487.844 98.076 488.018 97.536 488.018H90.84C90.612 488.018 90.498 487.964 90.498 487.856C90.498 487.832 90.516 487.79 90.552 487.73C90.588 487.67 90.63 487.598 90.678 487.514C90.738 487.418 90.786 487.328 90.822 487.244C91.002 486.812 91.116 486.152 91.164 485.264V478.316C91.116 477.416 91.002 476.756 90.822 476.336C90.786 476.252 90.738 476.162 90.678 476.066C90.63 475.97 90.588 475.892 90.552 475.832C90.516 475.772 90.498 475.73 90.498 475.706C90.498 475.598 90.612 475.544 90.84 475.544H91.164ZM94.692 485.3H95.97C96.138 485.3 96.276 485.246 96.384 485.138C96.504 485.03 96.564 484.898 96.564 484.742V478.82C96.564 478.664 96.504 478.532 96.384 478.424C96.276 478.316 96.138 478.262 95.97 478.262H94.692C94.524 478.262 94.38 478.316 94.26 478.424C94.152 478.532 94.098 478.664 94.098 478.82V484.742C94.098 484.898 94.152 485.03 94.26 485.138C94.38 485.246 94.524 485.3 94.692 485.3Z" fill="white"/>
<path d="M108.347 477.038L109.931 485.462C110.111 486.23 110.315 486.83 110.543 487.262C110.579 487.322 110.621 487.388 110.669 487.46C110.717 487.532 110.753 487.592 110.777 487.64C110.813 487.676 110.843 487.718 110.867 487.766C110.891 487.802 110.903 487.832 110.903 487.856C110.903 487.964 110.819 488.018 110.651 488.018H110.417H106.997C106.745 488.018 106.619 487.964 106.619 487.856C106.619 487.832 106.637 487.79 106.673 487.73C106.709 487.658 106.751 487.58 106.799 487.496C106.847 487.4 106.883 487.31 106.907 487.226C107.039 486.746 107.051 486.086 106.943 485.246L106.763 484.004C106.739 483.848 106.667 483.746 106.547 483.698C106.427 483.638 106.295 483.65 106.151 483.734L104.621 484.58C104.285 484.784 104.087 485.042 104.027 485.354L103.955 485.84C103.907 486.44 103.925 486.902 104.009 487.226C104.033 487.31 104.069 487.4 104.117 487.496C104.165 487.58 104.207 487.658 104.243 487.73C104.279 487.79 104.297 487.832 104.297 487.856C104.297 487.964 104.177 488.018 103.937 488.018H103.595H100.247C100.091 488.018 100.013 487.964 100.013 487.856C100.013 487.832 100.031 487.796 100.067 487.748C100.103 487.688 100.151 487.61 100.211 487.514C100.283 487.418 100.337 487.334 100.373 487.262C100.553 486.926 100.733 486.416 100.913 485.732L102.569 477.11C102.665 476.726 102.659 476.42 102.551 476.192C102.527 476.144 102.491 476.084 102.443 476.012C102.407 475.928 102.377 475.862 102.353 475.814C102.329 475.766 102.317 475.73 102.317 475.706C102.317 475.598 102.413 475.544 102.605 475.544H102.875H108.347C108.539 475.544 108.635 475.598 108.635 475.706C108.635 475.742 108.557 475.892 108.401 476.156C108.293 476.336 108.275 476.63 108.347 477.038ZM105.143 481.61L105.683 481.34C106.019 481.148 106.157 480.878 106.097 480.53L105.593 478.226C105.521 477.914 105.443 477.914 105.359 478.226L104.729 481.34C104.705 481.496 104.729 481.604 104.801 481.664C104.885 481.712 104.999 481.694 105.143 481.61Z" fill="white"/>
<path d="M111.1 478.262V476.03C111.1 475.898 111.154 475.784 111.262 475.688C111.382 475.592 111.526 475.544 111.694 475.544H118.624C118.792 475.544 118.93 475.592 119.038 475.688C119.158 475.784 119.218 475.898 119.218 476.03V476.516V478.568C119.218 478.76 119.158 478.856 119.038 478.856C119.014 478.856 118.966 478.838 118.894 478.802C118.834 478.766 118.756 478.724 118.66 478.676C118.564 478.616 118.474 478.574 118.39 478.55C118.018 478.418 117.52 478.322 116.896 478.262H116.752C116.668 478.262 116.626 478.448 116.626 478.82V485.21C116.674 486.11 116.788 486.788 116.968 487.244C117.004 487.328 117.046 487.418 117.094 487.514C117.154 487.598 117.202 487.67 117.238 487.73C117.274 487.79 117.292 487.832 117.292 487.856C117.292 487.964 117.184 488.018 116.968 488.018H116.626H113.368C113.14 488.018 113.026 487.964 113.026 487.856C113.026 487.832 113.044 487.79 113.08 487.73C113.116 487.67 113.158 487.598 113.206 487.514C113.266 487.418 113.314 487.328 113.35 487.244C113.53 486.788 113.644 486.11 113.692 485.21V478.82C113.692 478.448 113.65 478.262 113.566 478.262H113.422C112.798 478.322 112.306 478.418 111.946 478.55C111.862 478.586 111.766 478.628 111.658 478.676C111.562 478.724 111.478 478.766 111.406 478.802C111.346 478.838 111.304 478.856 111.28 478.856C111.16 478.856 111.1 478.76 111.1 478.568V478.262Z" fill="white"/>
<path d="M127.366 477.038L128.95 485.462C129.13 486.23 129.334 486.83 129.562 487.262C129.598 487.322 129.64 487.388 129.688 487.46C129.736 487.532 129.772 487.592 129.796 487.64C129.832 487.676 129.862 487.718 129.886 487.766C129.91 487.802 129.922 487.832 129.922 487.856C129.922 487.964 129.838 488.018 129.67 488.018H129.436H126.016C125.764 488.018 125.638 487.964 125.638 487.856C125.638 487.832 125.656 487.79 125.692 487.73C125.728 487.658 125.77 487.58 125.818 487.496C125.866 487.4 125.902 487.31 125.926 487.226C126.058 486.746 126.07 486.086 125.962 485.246L125.782 484.004C125.758 483.848 125.686 483.746 125.566 483.698C125.446 483.638 125.314 483.65 125.17 483.734L123.64 484.58C123.304 484.784 123.106 485.042 123.046 485.354L122.974 485.84C122.926 486.44 122.944 486.902 123.028 487.226C123.052 487.31 123.088 487.4 123.136 487.496C123.184 487.58 123.226 487.658 123.262 487.73C123.298 487.79 123.316 487.832 123.316 487.856C123.316 487.964 123.196 488.018 122.956 488.018H122.614H119.266C119.11 488.018 119.032 487.964 119.032 487.856C119.032 487.832 119.05 487.796 119.086 487.748C119.122 487.688 119.17 487.61 119.23 487.514C119.302 487.418 119.356 487.334 119.392 487.262C119.572 486.926 119.752 486.416 119.932 485.732L121.588 477.11C121.684 476.726 121.678 476.42 121.57 476.192C121.546 476.144 121.51 476.084 121.462 476.012C121.426 475.928 121.396 475.862 121.372 475.814C121.348 475.766 121.336 475.73 121.336 475.706C121.336 475.598 121.432 475.544 121.624 475.544H121.894H127.366C127.558 475.544 127.654 475.598 127.654 475.706C127.654 475.742 127.576 475.892 127.42 476.156C127.312 476.336 127.294 476.63 127.366 477.038ZM124.162 481.61L124.702 481.34C125.038 481.148 125.176 480.878 125.116 480.53L124.612 478.226C124.54 477.914 124.462 477.914 124.378 478.226L123.748 481.34C123.724 481.496 123.748 481.604 123.82 481.664C123.904 481.712 124.018 481.694 124.162 481.61Z" fill="white"/>
</svg>
