<svg width="42" height="42" viewBox="0 0 42 42" fill="none" xmlns="http://www.w3.org/2000/svg">
<path d="M41 21C41 32.0457 32.0457 41 21 41C9.95431 41 1 32.0457 1 21C1 9.95431 9.95431 1 21 1C32.0457 1 41 9.95431 41 21Z" fill="#EF4CBB"/>
<path d="M41 21C41 32.0457 32.0457 41 21 41M41 21C41 9.95431 32.0457 1 21 1M41 21H36M21 41C9.95431 41 1 32.0457 1 21M21 41V1M21 41C13 41 11 27.6667 11 21M21 41C29 41 31 27.6667 31 21M21 41C9 41 6 27.6667 6 21M21 41C33 41 36 27.6667 36 21M21 41C17 41 16 27.6667 16 21M21 41C25 41 26 27.6667 26 21M1 21C1 9.95431 9.95431 1 21 1M1 21H6M21 1C13 1 11 14.3333 11 21M21 1C29 1 31 14.3333 31 21M21 1C9 1 6 14.3333 6 21M21 1C33 1 36 14.3333 36 21M21 1C17 1 16 14.3333 16 21M21 1C25 1 26 14.3333 26 21M11 21H6M11 21H16M31 21H36M31 21H26M16 21H26" stroke="white"/>
</svg>
