<svg width="277" height="140" viewBox="0 0 277 140" fill="none" xmlns="http://www.w3.org/2000/svg">
<path d="M87.6983 11.7667C103.401 5.46648 120.546 2 138.5 2C154.439 2 169.74 4.73194 183.96 9.75313C236.997 28.4805 275 79.0523 275 138.5H205.088H89.9535H80.9326H64.0778H58.7365H56.0065H52.327H49.1222H2C2 96.2884 21.1605 58.552 51.2587 33.5135C62.1116 24.4851 74.3866 17.1076 87.6983 11.7667Z" fill="#EF4CBB"/>
<path d="M87.6983 11.7667C103.401 5.46648 120.546 2 138.5 2C154.439 2 169.74 4.73194 183.96 9.75313M87.6983 11.7667C88.173 12.3885 89.2413 13.6084 89.7161 13.5135C90.3096 13.3948 90.0722 16.1248 89.2413 16.1248C88.4104 16.1248 86.8674 18.4987 88.8852 18.6174C90.903 18.7361 90.547 17.3117 90.4283 16.9557C90.3096 16.5996 92.2087 14.8191 92.9209 15.1752C93.633 15.5313 97.0752 15.8874 98.737 15.1752C100.399 14.463 113.455 15.2939 113.93 16.1248C114.405 16.9557 115.354 19.4483 122.357 18.6174C129.36 17.7865 115.354 35.7096 110.369 31.3178C105.384 26.9261 104.197 25.9765 100.992 26.6887C97.7874 27.4009 96.1257 28.9439 95.0574 26.6887C93.9891 24.4335 82.0009 30.487 82.1196 32.8609C82.2383 35.2348 83.0691 40.8135 86.3926 40.8135C85.0078 43.7413 83.5677 48.7186 88.8852 45.2052C89.2017 43.86 90.1434 41.1696 91.3778 41.1696C92.9209 41.1696 96.007 37.8461 95.8883 35.3535C95.7696 32.8609 98.4996 32.2674 100.399 30.1309C102.298 27.9943 106.096 32.1487 105.74 32.8609C105.384 33.573 103.841 39.5078 111.319 34.9974C112.031 38.3209 113.977 44.8254 116.067 44.2557C118.678 43.5435 122.12 49.597 113.93 51.14C105.74 52.683 100.873 53.6326 102.179 58.3804C103.485 63.1283 92.09 60.0422 89.2413 65.977C86.3926 71.9117 76.6596 70.4874 76.7783 77.9652C76.897 85.443 63.9591 78.2026 62.7722 95.6509C63.1283 99.37 62.9383 105.052 59.33 98.0248C60.1609 95.1365 60.8256 89.3363 56.8374 89.2413C51.8522 89.1226 48.1726 85.443 40.1013 89.2413C32.03 93.0396 29.7748 107.046 33.4543 110.725C37.1339 114.405 42.3565 114.167 43.1874 110.725C44.0183 107.283 52.4457 108.826 47.1043 112.743C41.763 116.66 40.5761 121.17 45.0865 121.17C49.597 121.17 51.9709 128.411 48.5287 131.972C45.775 134.82 49.9135 137.511 52.327 138.5M87.6983 11.7667C74.3866 17.1076 62.1116 24.4851 51.2587 33.5135M52.327 138.5H56.0065H58.7365H64.0778M52.327 138.5H49.1222M64.0778 138.5C64.8296 137.63 66.6891 135.912 68.1135 136.007C69.8939 136.126 77.6091 134.227 78.6774 136.007C79.532 137.432 80.537 138.263 80.9326 138.5M64.0778 138.5H80.9326M80.9326 138.5H89.9535H205.088M49.1222 138.5H2C2 96.2884 21.1605 58.552 51.2587 33.5135M49.1222 138.5C47.5 137.273 44.2794 134.251 44.3743 131.972C44.493 129.123 41.2883 126.274 38.677 124.613C36.0657 122.951 34.5226 116.66 31.4365 117.372C28.3504 118.084 20.8726 106.927 22.4157 105.147C23.9587 103.366 23.2465 89.5974 23.84 86.7487C24.4335 83.9 27.0448 71.3183 26.8074 68.1135C26.57 64.9087 40.1013 46.9857 41.8817 46.6296C43.6622 46.2735 50.6652 35.5905 51.2587 33.5135M183.96 9.75313C236.997 28.4805 275 79.0523 275 138.5H205.088M183.96 9.75313C187.126 12.1935 192.507 16.8844 188.708 16.1248C183.96 15.1752 177.788 13.6322 183.96 24.3148C190.133 34.9974 190.37 38.677 194.287 34.9974C198.204 31.3178 202.477 38.0835 199.628 41.1696M199.628 41.1696C198.94 41.9152 198.092 42.3559 197.136 42.5303M199.628 41.1696C199.747 44.0183 199.415 50.0005 197.136 51.14C194.287 52.5643 201.053 56.3626 201.29 58.3804C201.527 60.3983 197.967 64.0778 194.287 63.4843C190.607 62.8909 195.118 75.5913 201.29 75.5913C207.462 75.5913 208.649 68.4696 209.717 65.977C210.786 63.4843 211.973 56.8374 213.634 58.3804C215.296 59.9235 219.213 57.3122 220.637 60.3983C222.062 63.4843 227.759 65.977 228.709 65.977C229.658 65.977 228.59 61.8226 223.961 59.4487C219.332 57.0748 215.771 52.9204 219.569 54.3448C223.367 55.7691 231.32 60.873 232.507 62.6535C233.694 64.4339 235.949 68.2322 237.136 67.2826C238.323 66.333 233.813 62.1787 233.813 61.1104C233.813 60.0422 233.338 56.7187 234.762 58.3804C236.187 60.0422 237.136 58.4991 235.949 56.9561C234.762 55.413 231.32 51.8522 230.608 50.0717C229.896 48.2913 228.471 44.8491 229.54 45.9174C230.608 46.9856 232.626 49.7157 233.219 49.1222C233.813 48.5287 230.608 44.0183 230.608 43.8996C230.608 43.7809 234.762 45.9174 235.949 48.41C237.136 50.9026 243.427 52.683 240.103 53.7513C236.78 54.8196 237.136 56.2439 237.136 56.9561C237.136 57.6683 235.712 59.6861 236.424 60.3983C237.136 61.1104 241.29 66.6891 242.596 65.977C243.902 65.2648 246.632 62.7722 247.344 65.0274C248.056 67.2826 255.178 74.6417 251.736 75.5913C248.293 76.5409 247.581 78.9148 246.394 77.253C245.207 75.5913 240.46 76.4222 240.934 77.6091C241.409 78.7961 247.344 84.2561 238.442 81.4074C229.54 78.5587 228.709 76.5409 228.709 75.1165C228.709 73.6922 224.673 70.4874 221.231 72.1491C217.789 73.8109 212.329 74.9978 212.566 77.6091C212.803 80.2204 206.275 75.9474 205.088 78.6774C203.901 81.4074 200.222 89.2413 202.24 91.2591C204.257 93.277 191.438 108.589 194.287 113.93C197.136 119.271 199.984 129.835 197.136 131.853C194.857 133.467 201.488 136.957 205.088 138.5M197.136 42.5303C194.132 43.0778 190.054 41.0007 186.453 37.49C182.655 33.7867 182.259 38.4 182.536 41.1696C182.18 43.2665 181.966 47.413 183.96 47.223C186.453 46.9857 188.946 47.223 190.607 47.223C192.269 47.223 199.984 45.9089 197.136 42.5303Z" stroke="white" stroke-width="3"/>
</svg>
