<svg width="277" height="140" viewBox="0 0 277 140" fill="none" xmlns="http://www.w3.org/2000/svg">
<path d="M52.327 1.5C52.5248 2.05391 53.1103 3.09053 53.87 2.80566C54.6297 2.52079 55.6109 1.81652 56.0065 1.5M52.327 1.5H56.0065M52.327 1.5H49.1222M56.0065 1.5H58.7365M58.7365 1.5C59.1717 2.2913 60.1371 4.01635 60.517 4.58609C60.9917 5.29826 63.7217 3.39913 64.0778 1.5M58.7365 1.5H64.0778M64.0778 1.5H80.9326H89.9535M89.9535 1.5C94.543 5.2587 103.722 13.1559 103.722 14.6752C103.722 16.1945 109.024 15.7831 111.675 15.3874C115.157 17.9987 121.669 24.2421 119.865 28.3252C119.627 29.4726 123.331 32.5508 140.043 35.6843C156.755 38.8179 157.056 46.4857 155.117 49.9278C151.754 53.2117 145.337 60.9665 146.571 65.7143C147.806 70.4622 141.705 77.1883 138.5 79.9578C133.554 80.2348 123.924 82.5217 124.969 89.4535C123.07 92.0252 118.868 97.4298 117.253 98.4743C115.236 99.78 114.049 102.747 111.081 101.204C108.114 99.6613 109.42 103.103 110.25 104.29C111.081 105.477 107.877 107.851 101.942 107.614C102.456 108.999 102.417 111.46 98.1435 110.225C99.4491 111.847 101.087 115.353 97.1939 116.397C98.6578 116.991 101.372 118.51 100.517 119.84C99.4491 121.501 99.093 124.113 100.517 124.35C101.942 124.587 106.927 124.825 106.096 126.487C105.265 128.148 96.7191 127.673 94.4639 124.35C92.2087 121.027 86.5113 118.415 87.3422 115.685C88.173 112.955 84.0187 106.427 82.9504 105.003C81.8822 103.578 82.4756 96.3378 79.7456 89.4535C77.0156 82.5691 81.0513 78.5335 78.0839 69.9874C75.1165 61.4413 64.4339 62.8657 63.8404 55.7439C63.3656 50.0465 56.3626 41.1048 52.9204 37.3461C53.6326 35.803 54.6296 31.8386 52.9204 28.3252C50.7839 23.9335 59.5674 18.7109 60.0422 14.2004C60.517 9.69001 58.2617 0.194349 54.5822 4.58609C51.6385 8.09948 49.7157 3.99261 49.1222 1.5M89.9535 1.5H205.088M49.1222 1.5H2C2 76.8869 63.1131 138 138.5 138C183.477 138 223.373 116.247 248.241 82.6878M205.088 1.5H275C275 31.9101 265.056 59.9975 248.241 82.6878M205.088 1.5C206.631 4.78391 210.501 11.4704 213.634 11.9452C217.551 12.5387 224.554 8.62175 227.047 9.21522C229.54 9.8087 236.78 3.51782 238.442 6.36652C240.103 9.21522 248.293 9.57131 247.344 15.3874C246.394 21.2035 249.718 30.4617 251.736 33.073C253.753 35.6844 251.617 46.9604 247.344 49.9278C243.071 52.8952 242.596 66.9013 243.664 68.3257C244.733 69.75 235.949 87.1855 238.442 89.4535C240.436 91.2679 245.806 85.699 248.241 82.6878" stroke="white" stroke-width="3"/>
</svg>
