<svg width="39" height="42" viewBox="0 0 39 42" fill="none" xmlns="http://www.w3.org/2000/svg">
<path d="M19.5 40.3196C29.7173 40.3196 38 31.5176 38 20.6598C38 9.802 29.7173 1 19.5 1C9.28273 1 1 9.802 1 20.6598C1 29.6026 6.61868 37.1508 14.3092 39.5352C14.2272 40.3105 14.8222 40.422 14.9462 40.6046C15.8949 41.03 17.7923 41.3316 18.9308 40.3105C19.1198 40.3166 19.3096 40.3196 19.5 40.3196Z" fill="#2B303E"/>
<path d="M18.9308 40.3105C19.1198 40.3166 19.3096 40.3196 19.5 40.3196C29.7173 40.3196 38 31.5176 38 20.6598C38 9.802 29.7173 1 19.5 1C9.28273 1 0.999998 9.802 0.999998 20.6598C0.999998 29.6026 6.61868 37.1508 14.3092 39.5352M18.9308 40.3105C17.7923 41.3316 15.8949 41.03 14.9462 40.6046C14.8222 40.422 14.2272 40.3105 14.3092 39.5352M18.9308 40.3105C18.3615 39.1799 16.3692 38.6101 14.3092 39.5352M18.9308 40.3105C19.802 39.7314 21.2065 38.4089 21.4098 36.9005M14.3092 39.5352C14.5987 39.2503 14.8597 36.8753 15.2308 35.7608C15.8 34.0513 20.0692 32.9116 21.2077 35.4759C21.4215 35.9575 21.4722 36.4378 21.4098 36.9005M14.3092 39.5352C14.2276 39.6156 14.3769 38.895 14.3092 39.5352ZM21.4098 36.9005C22.6706 36.2357 24.3385 34.5072 20.9231 32.9116C16.6538 30.9171 12.3846 34.3362 14.9462 36.3307" stroke="white"/>
</svg>
